<?xml version="1.0" encoding="UTF-8"?>
<svg version="1.1" xmlns="http://www.w3.org/2000/svg" width="140" height="137">
<path d="M0 0 C46.2 0 92.4 0 140 0 C140 44.88 140 89.76 140 136 C93.8 136 47.6 136 0 136 C0 91.12 0 46.24 0 0 Z " fill="#12110F" transform="translate(0,1)"/>
<path d="M0 0 C46.2 0 92.4 0 140 0 C140 44.88 140 89.76 140 136 C93.8 136 47.6 136 0 136 C0 91.12 0 46.24 0 0 Z M62 8 C61.54188325 9.97235333 61.54188325 9.97235333 61.375 12.125 C61.189375 14.043125 61.189375 14.043125 61 16 C59.7625 16.144375 58.525 16.28875 57.25 16.4375 C54.43495501 16.78688502 51.7298503 17.20379366 49 18 C48.443125 17.195625 47.88625 16.39125 47.3125 15.5625 C45.23016111 12.93347153 45.23016111 12.93347153 42.6875 11.875 C39.151359 12.03947167 37.10073537 13.00777395 34.296875 15.140625 C32.03231014 18.38741076 33.2403644 21.68004713 33.8515625 25.40234375 C34 28 34 28 31.75 31.0625 C26.14001064 35.0149925 26.14001064 35.0149925 23.73828125 34.7578125 C22.93777344 34.54898438 22.13726563 34.34015625 21.3125 34.125 C20.50425781 33.92132813 19.69601563 33.71765625 18.86328125 33.5078125 C18.24839844 33.34023438 17.63351563 33.17265625 17 33 C13.4102471 36.82134986 11.90342345 39.68828954 12 45 C13.2375 45.9590625 13.2375 45.9590625 14.5 46.9375 C15.7375 47.9584375 15.7375 47.9584375 17 49 C17.22012993 51.78638153 16.66411423 54.30137709 16 57 C15.90976563 57.70769531 15.81953125 58.41539063 15.7265625 59.14453125 C15 61 15 61 12.96875 62.01171875 C12.1540625 62.23472656 11.339375 62.45773438 10.5 62.6875 C7.48160243 63.36829043 7.48160243 63.36829043 5 65 C4.8754514 66.64230364 4.82431476 68.29052276 4.8125 69.9375 C4.79832031 70.83339844 4.78414063 71.72929688 4.76953125 72.65234375 C4.76805231 75.19114534 4.76805231 75.19114534 7 77 C9.20250992 77.46006346 9.20250992 77.46006346 11.625 77.625 C12.44226563 77.69976562 13.25953125 77.77453125 14.1015625 77.8515625 C15.04128906 77.92503906 15.04128906 77.92503906 16 78 C16.06058594 78.60328125 16.12117188 79.2065625 16.18359375 79.828125 C16.30927734 81.02695313 16.30927734 81.02695313 16.4375 82.25 C16.51871094 83.03890625 16.59992187 83.8278125 16.68359375 84.640625 C16.97634993 86.82364639 17.42064419 88.8773182 18 91 C17.38125 91.28875 16.7625 91.5775 16.125 91.875 C13.86674235 92.93720042 13.86674235 92.93720042 12 95 C12.25140615 99.52531079 12.69617871 102.78293113 16 106 C18.86020334 105.99557244 21.41035383 105.43043897 24.2109375 104.87109375 C25.13132812 104.91363281 26.05171875 104.95617187 27 105 C27.73012802 105.81464218 28.46025604 106.62928436 29.21250916 107.46861267 C32.79370177 110.72077962 34.60731273 110.62759086 39.38891602 110.63110352 C40.11473877 110.63825882 40.84056152 110.64541412 41.58837891 110.65278625 C43.97753645 110.66963787 46.36480821 110.65029603 48.75390625 110.62890625 C50.41869766 110.6297352 52.08348899 110.63219556 53.74827576 110.63621521 C57.23274448 110.63907064 60.71656949 110.62439606 64.20092773 110.59692383 C68.66570907 110.56281432 73.1293416 110.56887011 77.5941782 110.5875864 C81.03006049 110.59815711 84.46567567 110.58921851 87.90153313 110.57420158 C89.5477513 110.56902157 91.19399739 110.5694994 92.84021187 110.57574654 C95.14091071 110.58120094 97.43996692 110.5608206 99.74047852 110.53344727 C101.70308372 110.5241494 101.70308372 110.5241494 103.70533752 110.5146637 C107.5089821 109.92049122 108.73699872 109.06117167 111 106 C111 105.34 111 104.68 111 104 C111.70125 104.33 112.4025 104.66 113.125 105 C116.4954884 106.17234379 118.46889275 106.66208261 122 106 C124.19679725 103.94928134 125.86127832 101.78731874 127 99 C126.85888675 96.86716471 126.85888675 96.86716471 126 95 C125.29875 94.443125 124.5975 93.88625 123.875 93.3125 C122 91 122 91 121.92578125 88.8515625 C122.30084846 85.39198736 122.89760696 82.30717913 124 79 C125.8125 78.0859375 125.8125 78.0859375 128 77.375 C130.74269271 76.58884867 130.74269271 76.58884867 133 75 C133.07226502 73.14712498 133.0838122 71.29166122 133.0625 69.4375 C133.05347656 68.42558594 133.04445312 67.41367188 133.03515625 66.37109375 C133.02355469 65.58863281 133.01195312 64.80617187 133 64 C132.37351562 63.86464844 131.74703125 63.72929688 131.1015625 63.58984375 C128.55841682 62.91996153 126.3348779 62.21652688 124 61 C122.4375 57.625 122.4375 57.625 122 54 C121.7834375 52.700625 121.7834375 52.700625 121.5625 51.375 C122 49 122 49 124.5625 46.5 C127.29087506 44.28360318 127.29087506 44.28360318 127 41.5 C125.87507371 38.68768428 124.86718105 36.40066134 123 34 C119.73575208 32.73057025 117.99674953 33.00076829 114.5625 33.8125 C110.83630371 34.00861559 110.23339392 33.97603542 107.5 31.75 C105.42799924 29.43681396 105.01492699 28.28675524 104.8515625 25.1484375 C105.10100277 22.39034075 105.46823027 19.71685989 106 17 C104.76055724 16.13058506 103.50792941 15.27994543 102.25 14.4375 C101.55390625 13.96183594 100.8578125 13.48617188 100.140625 12.99609375 C98.07568462 11.81901209 98.07568462 11.81901209 95.9140625 12.1796875 C93.65066127 13.02136869 93.65066127 13.02136869 91.125 15.6875 C90.09375 16.450625 89.0625 17.21375 88 18 C84.9375 17.3125 84.9375 17.3125 82 16 C79.24934768 15.83142517 79.24934768 15.83142517 77 16 C76.93941406 15.36191406 76.87882812 14.72382813 76.81640625 14.06640625 C76.73261719 13.24011719 76.64882812 12.41382813 76.5625 11.5625 C76.48128906 10.73878906 76.40007812 9.91507813 76.31640625 9.06640625 C76.21069185 7.01337975 76.21069185 7.01337975 75 6 C73.19072719 5.87512242 71.37603893 5.82429154 69.5625 5.8125 C68.57378906 5.79832031 67.58507812 5.78414063 66.56640625 5.76953125 C63.83415585 5.73849247 63.83415585 5.73849247 62 8 Z " fill="#FDFDFC" transform="translate(0,1)"/>
<path d="M0 0 C0.78310547 0.00644531 1.56621094 0.01289063 2.37304688 0.01953125 C14.23585975 0.38812233 23.96196196 5.12005865 32.3125 13.5 C40.77501443 23.29698786 44.23420628 33.61497552 43.7109375 46.47265625 C43.1774665 53.54199647 41.25546262 60.58555608 37.3125 66.5 C36.8521236 69.69806665 36.8521236 69.69806665 36.6875 73.1875 C36.61273438 74.36699219 36.53796875 75.54648438 36.4609375 76.76171875 C36.38746094 78.11716797 36.38746094 78.11716797 36.3125 79.5 C33.6725 79.5 31.0325 79.5 28.3125 79.5 C28.3125 78.84 28.3125 78.18 28.3125 77.5 C27.6525 77.5 26.9925 77.5 26.3125 77.5 C26.3125 68.92 26.3125 60.34 26.3125 51.5 C21.3625 51.5 16.4125 51.5 11.3125 51.5 C11.3125 60.08 11.3125 68.66 11.3125 77.5 C10.6525 77.5 9.9925 77.5 9.3125 77.5 C9.3125 66.28 9.3125 55.06 9.3125 43.5 C6.66819723 42.44227889 4.01435122 41.40061707 1.3125 40.5 C-0.7346641 41.47769614 -0.7346641 41.47769614 -2.75 42.9375 C-6.4994891 45.5 -6.4994891 45.5 -8.6875 45.5 C-8.6875 56.06 -8.6875 66.62 -8.6875 77.5 C-9.6775 77.5 -10.6675 77.5 -11.6875 77.5 C-11.6875 76.51 -11.6875 75.52 -11.6875 74.5 C-15.6475 74.5 -19.6075 74.5 -23.6875 74.5 C-23.6875 75.49 -23.6875 76.48 -23.6875 77.5 C-24.3475 77.5 -25.0075 77.5 -25.6875 77.5 C-25.6875 78.16 -25.6875 78.82 -25.6875 79.5 C-28.6575 79.5 -31.6275 79.5 -34.6875 79.5 C-34.70167969 78.74976562 -34.71585938 77.99953125 -34.73046875 77.2265625 C-35.04641452 70.44653699 -36.22400428 65.7168448 -39.4765625 59.78515625 C-44.22442477 50.82548068 -43.97255707 39.75618643 -41.0625 30.25 C-36.50900234 18.12331676 -28.50642023 8.8839699 -16.6875 3.5 C-11.06019961 0.97921901 -6.16325473 -0.05364016 0 0 Z " fill="#FBFBFA" transform="translate(68.6875,27.5)"/>
<path d="M0 0 C0 11.22 0 22.44 0 34 C0.66 34 1.32 34 2 34 C2 25.42 2 16.84 2 8 C6.95 8 11.9 8 17 8 C17 17.24 17 26.48 17 36 C7.43 36 -2.14 36 -12 36 C-12 33.36 -12 30.72 -12 28 C-12.99 28 -13.98 28 -15 28 C-14.98839844 26.92878906 -14.97679687 25.85757813 -14.96484375 24.75390625 C-14.95546701 23.35677257 -14.94636669 21.95963701 -14.9375 20.5625 C-14.92912109 19.85544922 -14.92074219 19.14839844 -14.91210938 18.41992188 C-14.90346412 16.61306441 -14.94779989 14.80612397 -15 13 C-15.33 12.67 -15.66 12.34 -16 12 C-16.33 19.26 -16.66 26.52 -17 34 C-17.33 34 -17.66 34 -18 34 C-18.24828873 29.5529579 -18.42909832 25.10963106 -18.54931641 20.65771484 C-18.59943968 19.14593236 -18.66756841 17.63463087 -18.75439453 16.12451172 C-19.44401091 3.81688757 -19.44401091 3.81688757 -16.01074219 -0.50292969 C-9.13775394 -5.27532635 -8.30223717 -4.15111859 0 0 Z " fill="#3C3B38" transform="translate(78,71)"/>
<path d="M0 0 C11.84402751 4.27781519 23.28424976 4.85223923 35.79418945 4.82861328 C35.79418945 6.80861328 35.79418945 8.78861328 35.79418945 10.82861328 C33.15418945 10.82861328 30.51418945 10.82861328 27.79418945 10.82861328 C27.9024707 11.73353516 27.9024707 11.73353516 28.01293945 12.65673828 C28.10575195 13.45595703 28.19856445 14.25517578 28.29418945 15.07861328 C28.38700195 15.86751953 28.47981445 16.65642578 28.57543945 17.46923828 C28.79418945 19.82861328 28.79418945 19.82861328 28.79418945 23.82861328 C27.47418945 23.82861328 26.15418945 23.82861328 24.79418945 23.82861328 C25.12418945 23.16861328 25.45418945 22.50861328 25.79418945 21.82861328 C26.45418945 22.15861328 27.11418945 22.48861328 27.79418945 22.82861328 C27.79418945 22.16861328 27.79418945 21.50861328 27.79418945 20.82861328 C27.13418945 20.82861328 26.47418945 20.82861328 25.79418945 20.82861328 C25.79418945 17.52861328 25.79418945 14.22861328 25.79418945 10.82861328 C15.23418945 10.82861328 4.67418945 10.82861328 -6.20581055 10.82861328 C-6.20581055 23.69861328 -6.20581055 36.56861328 -6.20581055 49.82861328 C-8.51581055 49.82861328 -10.82581055 49.82861328 -13.20581055 49.82861328 C-13.20581055 36.95861328 -13.20581055 24.08861328 -13.20581055 10.82861328 C-17.82581055 10.82861328 -22.44581055 10.82861328 -27.20581055 10.82861328 C-27.20581055 8.84861328 -27.20581055 6.86861328 -27.20581055 4.82861328 C-25.68987305 4.24080078 -25.68987305 4.24080078 -24.14331055 3.64111328 C-20.63588022 2.18027208 -18.00554292 0.23245732 -15.17456055 -2.28076172 C-10.30663095 -4.48292035 -4.71883661 -1.72817391 0 0 Z " fill="#E9CB76" transform="translate(61.205810546875,52.17138671875)"/>
<path d="M0 0 C0.33 1.32 0.66 2.64 1 4 C2.32 4.33 3.64 4.66 5 5 C4.01 5 3.02 5 2 5 C2 6.32 2 7.64 2 9 C2.99 9.33 3.98 9.66 5 10 C4.01 10 3.02 10 2 10 C2 11.32 2 12.64 2 14 C4.64 14 7.28 14 10 14 C10 14.33 10 14.66 10 15 C7.36 15 4.72 15 2 15 C2 16.65 2 18.3 2 20 C2.99 20 3.98 20 5 20 C5 21.98 5 23.96 5 26 C8.31026609 26.97299662 11.41709908 27.19346782 14.859375 27.31640625 C15.97441406 27.35830078 17.08945313 27.40019531 18.23828125 27.44335938 C19.39714844 27.48267578 20.55601563 27.52199219 21.75 27.5625 C22.92433594 27.60568359 24.09867188 27.64886719 25.30859375 27.69335938 C28.20561451 27.79934794 31.10271935 27.90141638 34 28 C34 27.34 34 26.68 34 26 C34.66 26 35.32 26 36 26 C36 26.66 36 27.32 36 28 C38.97 28 41.94 28 45 28 C45.495 29.98 45.495 29.98 46 32 C21.58 32 -2.84 32 -28 32 C-28 26.72 -28 21.44 -28 16 C-27.67 16 -27.34 16 -27 16 C-27 19.96 -27 23.92 -27 28 C-24.03 28 -21.06 28 -18 28 C-18 27.34 -18 26.68 -18 26 C-17.34 26 -16.68 26 -16 26 C-16 25.01 -16 24.02 -16 23 C-12.04 23 -8.08 23 -4 23 C-4 23.99 -4 24.98 -4 26 C-2.68 26 -1.36 26 0 26 C0 17.42 0 8.84 0 0 Z " fill="#303030" transform="translate(61,79)"/>
<path d="M0 0 C1.37478516 0.01740234 1.37478516 0.01740234 2.77734375 0.03515625 C3.69644531 0.04417969 4.61554687 0.05320312 5.5625 0.0625 C6.27277344 0.07410156 6.98304687 0.08570312 7.71484375 0.09765625 C8.37484375 1.41765625 9.03484375 2.73765625 9.71484375 4.09765625 C10.37484375 4.09765625 11.03484375 4.09765625 11.71484375 4.09765625 C12.37484375 2.77765625 13.03484375 1.45765625 13.71484375 0.09765625 C15.67310248 0.07070774 17.63146601 0.05128407 19.58984375 0.03515625 C21.22566406 0.01775391 21.22566406 0.01775391 22.89453125 0 C25.71484375 0.09765625 25.71484375 0.09765625 27.71484375 1.09765625 C27.71484375 4.43098958 27.71484375 7.76432292 27.71484375 11.09765625 C28.64767671 13.29833046 28.64767671 13.29833046 29.71484375 15.09765625 C27.33984375 14.78515625 27.33984375 14.78515625 24.71484375 14.09765625 C24.05484375 13.10765625 23.39484375 12.11765625 22.71484375 11.09765625 C22.38484375 12.41765625 22.05484375 13.73765625 21.71484375 15.09765625 C20.39484375 15.09765625 19.07484375 15.09765625 17.71484375 15.09765625 C17.21984375 8.66265625 17.21984375 8.66265625 16.71484375 2.09765625 C13.8380411 6.68064708 13.8380411 6.68064708 13.02734375 11.41015625 C12.92421875 12.62703125 12.82109375 13.84390625 12.71484375 15.09765625 C11.39484375 15.09765625 10.07484375 15.09765625 8.71484375 15.09765625 C8.58207031 14.41058594 8.44929688 13.72351563 8.3125 13.015625 C8.13589844 12.11457031 7.95929687 11.21351562 7.77734375 10.28515625 C7.60332031 9.39183594 7.42929687 8.49851562 7.25 7.578125 C6.73743222 4.98368454 6.73743222 4.98368454 5.71484375 2.09765625 C5.05484375 2.09765625 4.39484375 2.09765625 3.71484375 2.09765625 C3.38484375 2.75765625 3.05484375 3.41765625 2.71484375 4.09765625 C1.39484375 3.76765625 0.07484375 3.43765625 -1.28515625 3.09765625 C-1.28515625 3.75765625 -1.28515625 4.41765625 -1.28515625 5.09765625 C-0.50140625 5.38640625 0.28234375 5.67515625 1.08984375 5.97265625 C3.71484375 7.09765625 3.71484375 7.09765625 5.71484375 9.09765625 C5.34802717 12.03218886 4.85047129 12.96202871 2.71484375 15.09765625 C-2.61848958 15.43098958 -2.61848958 15.43098958 -5.28515625 14.09765625 C-4.95515625 12.77765625 -4.62515625 11.45765625 -4.28515625 10.09765625 C-2.63515625 10.42765625 -0.98515625 10.75765625 0.71484375 11.09765625 C-0.13078125 10.37578125 -0.97640625 9.65390625 -1.84765625 8.91015625 C-4.28515625 6.09765625 -4.28515625 6.09765625 -4.16015625 3.34765625 C-2.90659517 0.12421347 -2.90659517 0.12421347 0 0 Z " fill="#FBBB1B" transform="translate(26.28515625,114.90234375)"/>
<path d="M0 0 C2.25701657 0.38914079 4.02288687 1.0117902 6.0625 2.0625 C8.09134681 3.21778046 8.09134681 3.21778046 11 3 C11.33 2.34 11.66 1.68 12 1 C12.66 1 13.32 1 14 1 C14.33 1.66 14.66 2.32 15 3 C15.598125 2.835 16.19625 2.67 16.8125 2.5 C19 2 19 2 22 2 C22 2.66 22 3.32 22 4 C23.98 3.01 25.96 2.02 28 1 C28.66 1.66 29.32 2.32 30 3 C32.47266765 2.65555119 32.47266765 2.65555119 35 2 C35.99 2 36.98 2 38 2 C38 2.99 38 3.98 38 5 C28.1 5 18.2 5 8 5 C8 17.87 8 30.74 8 44 C6.02 44 4.04 44 2 44 C2 40.50667465 2.40656527 38.05499507 4.125 35 C5.21119138 32.51727685 4.81487518 31.52611305 4 29 C4 26.37886292 4.31292445 24.49064888 5 22 C4.34 21.67 3.68 21.34 3 21 C3 20.34 3 19.68 3 19 C3.66 18.67 4.32 18.34 5 18 C4.835 17.401875 4.67 16.80375 4.5 16.1875 C3.90144967 13.56884232 3.85392386 11.53561251 4.5625 8.9375 C5.23013503 6.9325719 5.23013503 6.9325719 4 5 C4.99 4.67 5.98 4.34 7 4 C3.37 4 -0.26 4 -4 4 C-2.66666667 2.66666667 -1.33333333 1.33333333 0 0 Z " fill="#F3D98A" transform="translate(47,58)"/>
<path d="M0 0 C0.33 0 0.66 0 1 0 C1.33 2.31 1.66 4.62 2 7 C1.01 7.33 0.02 7.66 -1 8 C-1.33 8.66 -1.66 9.32 -2 10 C-2.99 10 -3.98 10 -5 10 C-1.7 10.33 1.6 10.66 5 11 C4.67 11.66 4.34 12.32 4 13 C4 13.33 4 13.66 4 14 C3.835 14.61875 3.67 15.2375 3.5 15.875 C2.71980052 19.19084777 3.11082037 21.77672386 4 25 C3.01 25.33 2.02 25.66 1 26 C1 26.66 1 27.32 1 28 C1.99 28.33 2.98 28.66 4 29 C3.835 29.598125 3.67 30.19625 3.5 30.8125 C2.90108335 33.43276033 2.81940704 35.42210251 3.625 38 C4 40 4 40 2 43 C2.33 43.66 2.66 44.32 3 45 C2.34 45 1.68 45 1 45 C0.67 45.99 0.34 46.98 0 48 C0.66 48.33 1.32 48.66 2 49 C1.01 49.66 0.02 50.32 -1 51 C-1 38.13 -1 25.26 -1 12 C-5.29 12 -9.58 12 -14 12 C-14 11.67 -14 11.34 -14 11 C-12.2984375 10.5978125 -12.2984375 10.5978125 -10.5625 10.1875 C-9.386875 9.795625 -8.21125 9.40375 -7 9 C-6.67 8.01 -6.34 7.02 -6 6 C-4.02 6 -2.04 6 0 6 C0 4.02 0 2.04 0 0 Z " fill="#947D45" transform="translate(49,51)"/>
<path d="M0 0 C0.33 1.32 0.66 2.64 1 4 C2.32 4.33 3.64 4.66 5 5 C4.01 5 3.02 5 2 5 C2 6.32 2 7.64 2 9 C2.99 9.33 3.98 9.66 5 10 C4.01 10 3.02 10 2 10 C2 11.32 2 12.64 2 14 C4.64 14 7.28 14 10 14 C10 14.33 10 14.66 10 15 C7.36 15 4.72 15 2 15 C2 16.65 2 18.3 2 20 C2.99 20 3.98 20 5 20 C5 21.98 5 23.96 5 26 C6.32 26.33 7.64 26.66 9 27 C5.79217914 27.95376567 2.91812604 28.11621181 -0.421875 28.09765625 C-1.44667969 28.09443359 -2.47148438 28.09121094 -3.52734375 28.08789062 C-4.59082031 28.07951172 -5.65429688 28.07113281 -6.75 28.0625 C-7.82894531 28.05798828 -8.90789063 28.05347656 -10.01953125 28.04882812 C-12.67974383 28.03705727 -15.33984365 28.02061399 -18 28 C-18 27.34 -18 26.68 -18 26 C-17.34 26 -16.68 26 -16 26 C-16 25.01 -16 24.02 -16 23 C-12.04 23 -8.08 23 -4 23 C-4 23.99 -4 24.98 -4 26 C-2.68 26 -1.36 26 0 26 C0 17.42 0 8.84 0 0 Z " fill="#1B1B1C" transform="translate(61,79)"/>
<path d="M0 0 C1.32 0 2.64 0 4 0 C4 0.99 4 1.98 4 3 C3.34 3 2.68 3 2 3 C2 3.99 2 4.98 2 6 C5.3 6 8.6 6 12 6 C12 6.99 12 7.98 12 9 C10.68 9 9.36 9 8 9 C8 11.31 8 13.62 8 16 C6.68 16 5.36 16 4 16 C4 13.69 4 11.38 4 9 C3.34 9 2.68 9 2 9 C2 11.31 2 13.62 2 16 C0.68 16 -0.64 16 -2 16 C-3.01924246 9.78630501 -3.62926746 5.51648654 0 0 Z " fill="#FACC53" transform="translate(78,114)"/>
<path d="M0 0 C1.32 0 2.64 0 4 0 C4.83739781 2.1234016 5.66980283 4.2487728 6.5 6.375 C6.9640625 7.55835937 7.428125 8.74171875 7.90625 9.9609375 C9 13 9 13 9 15 C7.68 14.67 6.36 14.34 5 14 C5 13.34 5 12.68 5 12 C2.02934491 12.34227572 2.02934491 12.34227572 -1 13 C-1.33 13.66 -1.66 14.32 -2 15 C-2.99 15 -3.98 15 -5 15 C-4.37321829 11.33827525 -3.35548154 8.1181005 -1.9375 4.6875 C-1.39416016 3.36298828 -1.39416016 3.36298828 -0.83984375 2.01171875 C-0.56269531 1.34785156 -0.28554687 0.68398437 0 0 Z " fill="#FCB70E" transform="translate(66,115)"/>
<path d="M0 0 C1.34384766 -0.03867188 1.34384766 -0.03867188 2.71484375 -0.078125 C3.48957031 0.03015625 4.26429687 0.1384375 5.0625 0.25 C5.7225 1.24 6.3825 2.23 7.0625 3.25 C5.7425 3.58 4.4225 3.91 3.0625 4.25 C3.0625 3.59 3.0625 2.93 3.0625 2.25 C2.4025 2.25 1.7425 2.25 1.0625 2.25 C0.7325 2.91 0.4025 3.57 0.0625 4.25 C-1.2575 3.92 -2.5775 3.59 -3.9375 3.25 C-3.9375 3.91 -3.9375 4.57 -3.9375 5.25 C-3.15375 5.53875 -2.37 5.8275 -1.5625 6.125 C1.0625 7.25 1.0625 7.25 3.0625 9.25 C2.69568342 12.18453261 2.19812754 13.11437246 0.0625 15.25 C-5.27083333 15.58333333 -5.27083333 15.58333333 -7.9375 14.25 C-7.6075 12.93 -7.2775 11.61 -6.9375 10.25 C-5.2875 10.58 -3.6375 10.91 -1.9375 11.25 C-2.783125 10.528125 -3.62875 9.80625 -4.5 9.0625 C-6.9375 6.25 -6.9375 6.25 -6.8125 3.5 C-5.30890063 -0.36639838 -3.98643282 0.06863299 0 0 Z " fill="#FBB711" transform="translate(28.9375,114.75)"/>
<path d="M0 0 C2.01822917 0.06510417 4.03645833 0.13020833 6.0546875 0.1953125 C6.0546875 3.4953125 6.0546875 6.7953125 6.0546875 10.1953125 C0 10.390625 0 10.390625 -1.9453125 10.1953125 C-3.9453125 8.1953125 -3.9453125 8.1953125 -4.1953125 5.1953125 C-3.91874762 1.87653392 -3.53131274 0.35454947 0 0 Z " fill="#FBB70F" transform="translate(108.9453125,119.8046875)"/>
<path d="M0 0 C0.66 0 1.32 0 2 0 C2 11.22 2 22.44 2 34 C0.35 34 -1.3 34 -3 34 C-3 30.50667465 -2.59343473 28.05499507 -0.875 25 C0.21119138 22.51727685 -0.18512482 21.52611305 -1 19 C-1 16.37886292 -0.68707555 14.49064888 0 12 C-0.66 11.67 -1.32 11.34 -2 11 C-2 10.34 -2 9.68 -2 9 C-1.34 8.67 -0.68 8.34 0 8 C-0.165 7.401875 -0.33 6.80375 -0.5 6.1875 C-1 4 -1 4 -1 1 C-0.67 0.67 -0.34 0.34 0 0 Z " fill="#F4CE6C" transform="translate(52,68)"/>
<path d="M0 0 C7 0 7 0 9 1 C9 4.33333333 9 7.66666667 9 11 C9.93283296 13.20067421 9.93283296 13.20067421 11 15 C9.35 14.67 7.7 14.34 6 14 C3.78461538 7.6 3.78461538 7.6 4.875 4.5625 C5.24625 4.046875 5.6175 3.53125 6 3 C4.68 3 3.36 3 2 3 C2 6.63 2 10.26 2 14 C1.34 14 0.68 14 0 14 C0 9.38 0 4.76 0 0 Z " fill="#FDB407" transform="translate(45,115)"/>
<path d="M0 0 C0 1.98 0 3.96 0 6 C-1.65 6 -3.3 6 -5 6 C-5.33 7.32 -5.66 8.64 -6 10 C-12.875 12 -12.875 12 -14 12 C-14 10.02 -14 8.04 -14 6 C-12.9275 5.566875 -11.855 5.13375 -10.75 4.6875 C-8.44860188 3.71311773 -6.77005686 2.82754265 -4.75 1.3125 C-3 0 -3 0 0 0 Z " fill="#F9BD2B" transform="translate(48,51)"/>
<path d="M0 0 C0.33 0 0.66 0 1 0 C1.33 2.31 1.66 4.62 2 7 C1.01 7.33 0.02 7.66 -1 8 C-1.33 8.66 -1.66 9.32 -2 10 C-2.99 10 -3.98 10 -5 10 C-1.7 10.33 1.6 10.66 5 11 C4.67 11.66 4.34 12.32 4 13 C4 13.33 4 13.66 4 14 C3.835 14.61875 3.67 15.2375 3.5 15.875 C2.88548033 18.12287006 2.88548033 18.12287006 3 21 C2.01 21 1.02 21 0 21 C-0.33 18.03 -0.66 15.06 -1 12 C-5.29 12 -9.58 12 -14 12 C-14 11.67 -14 11.34 -14 11 C-12.2984375 10.5978125 -12.2984375 10.5978125 -10.5625 10.1875 C-9.386875 9.795625 -8.21125 9.40375 -7 9 C-6.67 8.01 -6.34 7.02 -6 6 C-4.02 6 -2.04 6 0 6 C0 4.02 0 2.04 0 0 Z " fill="#B58E2E" transform="translate(49,51)"/>
<path d="M0 0 C2.16874252 0.50603992 3.99967627 0.99983813 6 2 C6.33 1.34 6.66 0.68 7 0 C8.32 0 9.64 0 11 0 C11.66 0.66 12.32 1.32 13 2 C13.66 1.34 14.32 0.68 15 0 C17.00720923 0.28674418 19.0085944 0.61866701 21 1 C21.33 0.67 21.66 0.34 22 0 C23.66605828 -0.0450286 25.33378384 -0.03874921 27 0 C28.32 0 29.64 0 31 0 C33.22931697 0.45897702 34.96063829 0.98031915 37 2 C37.33 1.34 37.66 0.68 38 0 C38.66 0.33 39.32 0.66 40 1 C39.34 1.99 38.68 2.98 38 4 C37.401875 3.835 36.80375 3.67 36.1875 3.5 C33.38116444 2.85855187 31.29105604 2.92723599 28.5 3.625 C26 4 26 4 23 2 C22.34 2.66 21.68 3.32 21 4 C20.01 4 19.02 4 18 4 C17.34 3.34 16.68 2.68 16 2 C15.34 2.66 14.68 3.32 14 4 C11.875 3.625 11.875 3.625 10 3 C10 2.34 10 1.68 10 1 C9.34 1 8.68 1 8 1 C7.67 1.99 7.34 2.98 7 4 C6.401875 3.835 5.80375 3.67 5.1875 3.5 C2.88655664 2.8885876 2.88655664 2.8885876 0 3 C0 2.01 0 1.02 0 0 Z " fill="#322C1E" transform="translate(51,58)"/>
<path d="M0 0 C2.64 0 5.28 0 8 0 C8 2.97 8 5.94 8 9 C5.36 9 2.72 9 0 9 C0 6.03 0 3.06 0 0 Z " fill="#B9AF90" transform="translate(63,84)"/>
<path d="M0 0 C0.33 0 0.66 0 1 0 C1 1.98 1 3.96 1 6 C-1.64 6 -4.28 6 -7 6 C-6.9278125 6.60328125 -6.855625 7.2065625 -6.78125 7.828125 C-6.6884375 8.62734375 -6.595625 9.4265625 -6.5 10.25 C-6.4071875 11.03890625 -6.314375 11.8278125 -6.21875 12.640625 C-6 15 -6 15 -6 19 C-7.32 19 -8.64 19 -10 19 C-9.67 18.34 -9.34 17.68 -9 17 C-8.34 17.33 -7.68 17.66 -7 18 C-7 17.34 -7 16.68 -7 16 C-7.66 16 -8.32 16 -9 16 C-9 12.7 -9 9.4 -9 6 C-9.66 5.67 -10.32 5.34 -11 5 C-10.38125 4.896875 -9.7625 4.79375 -9.125 4.6875 C-6.63473516 4.12474627 -6.63473516 4.12474627 -5 1 C-4.01 1 -3.02 1 -2 1 C-2 2.32 -2 3.64 -2 5 C-1.34 5 -0.68 5 0 5 C0 3.35 0 1.7 0 0 Z " fill="#93814D" transform="translate(96,57)"/>
<path d="M0 0 C6.45054982 1.35253464 12.71105679 3.03060233 19 5 C19 5.33 19 5.66 19 6 C12.73 6 6.46 6 0 6 C0 4.02 0 2.04 0 0 Z " fill="#F7F7EF" transform="translate(50,51)"/>
<path d="M0 0 C0.99 0.66 1.98 1.32 3 2 C2.34 5.3 1.68 8.6 1 12 C1.66 12.33 2.32 12.66 3 13 C2.01 13.66 1.02 14.32 0 15 C-0.99 14.67 -1.98 14.34 -3 14 C-3.15015974 4.99041534 -3.15015974 4.99041534 -2 2 C-1.34 1.34 -0.68 0.68 0 0 Z " fill="#8C7815" transform="translate(87,86)"/>
<path d="M0 0 C0.33 1.32 0.66 2.64 1 4 C2.98 4.495 2.98 4.495 5 5 C4.01 5 3.02 5 2 5 C2 6.32 2 7.64 2 9 C2.99 9.33 3.98 9.66 5 10 C4.01 10 3.02 10 2 10 C2 11.32 2 12.64 2 14 C4.64 14 7.28 14 10 14 C10 14.33 10 14.66 10 15 C7.03 15 4.06 15 1 15 C1 18.63 1 22.26 1 26 C0.67 26 0.34 26 0 26 C0 17.42 0 8.84 0 0 Z " fill="#191611" transform="translate(61,79)"/>
<path d="M0 0 C8.25 0.33 16.5 0.66 25 1 C25 2.65 25 4.3 25 6 C24.34 6 23.68 6 23 6 C23 4.68 23 3.36 23 2 C21.35 2 19.7 2 18 2 C17.67 2.99 17.34 3.98 17 5 C16.01 4.34 15.02 3.68 14 3 C11.99199544 3.28112064 9.98985949 3.61067967 8 4 C7.67 3.67 7.34 3.34 7 3 C5.65252916 2.76924918 4.29622435 2.58846937 2.9375 2.4375 C1.638125 2.293125 0.33875 2.14875 -1 2 C-0.67 1.34 -0.34 0.68 0 0 Z " fill="#DFB13D" transform="translate(71,56)"/>
<path d="M0 0 C0.33 0 0.66 0 1 0 C1 4.62 1 9.24 1 14 C1.66 14 2.32 14 3 14 C2.814375 12.9275 2.62875 11.855 2.4375 10.75 C2.0695432 7.59608454 1.95534657 5.90181508 3 3 C4.32 3 5.64 3 7 3 C6.14285714 11.57142857 6.14285714 11.57142857 4 15 C2.68 15 1.36 15 0 15 C0 10.05 0 5.1 0 0 Z " fill="#FAD670" transform="translate(44,115)"/>
<path d="M0 0 C0.33 0 0.66 0 1 0 C1 1.65 1 3.3 1 5 C1.99 5 2.98 5 4 5 C4 6.98 4 8.96 4 11 C5.32 11.33 6.64 11.66 8 12 C6.39773045 12.22245393 4.79303233 12.42746669 3.1875 12.625 C2.29417969 12.74101563 1.40085937 12.85703125 0.48046875 12.9765625 C-2 13 -2 13 -5 11 C-3.35 11 -1.7 11 0 11 C0 7.37 0 3.74 0 0 Z " fill="#2A261E" transform="translate(62,94)"/>
<path d="M0 0 C2.625 0.375 2.625 0.375 5 1 C4.67 1.66 4.34 2.32 4 3 C3.01 3.33 2.02 3.66 1 4 C1 4.66 1 5.32 1 6 C2.32 6.66 3.64 7.32 5 8 C4.67 8.66 4.34 9.32 4 10 C-0.75 9.25 -0.75 9.25 -3 7 C-2.67028521 3.70285207 -2.3773161 2.3773161 0 0 Z " fill="#FBB814" transform="translate(99,120)"/>
<path d="M0 0 C0 3 0 3 -1 5 C-0.01 5 0.98 5 2 5 C2 6.32 2 7.64 2 9 C-0.64 9.33 -3.28 9.66 -6 10 C-5.8125 6.6875 -5.8125 6.6875 -5 3 C-2.4375 1.0625 -2.4375 1.0625 0 0 Z " fill="#807A66" transform="translate(69,68)"/>
<path d="M0 0 C0.99 0.33 1.98 0.66 3 1 C3.66 0.67 4.32 0.34 5 0 C5.99 3.3 6.98 6.6 8 10 C6.68 9.67 5.36 9.34 4 9 C4 8.34 4 7.68 4 7 C2.02 7 0.04 7 -2 7 C-2 6.67 -2 6.34 -2 6 C-0.35 5.67 1.3 5.34 3 5 C1.68 4.34 0.36 3.68 -1 3 C-0.67 2.01 -0.34 1.02 0 0 Z " fill="#FBC741" transform="translate(67,120)"/>
<path d="M0 0 C6.93538164 0.47286693 13.42326303 2.87368654 20 5 C20 5.66 20 6.32 20 7 C13.63583076 5.43247063 7.28643343 3.85735533 1 2 C1 3.98 1 5.96 1 8 C0.67 8 0.34 8 0 8 C-0.38063221 5.6739143 -0.71269945 3.33944736 -1 1 C-0.67 0.67 -0.34 0.34 0 0 Z " fill="#E5AF37" transform="translate(48,49)"/>
<path d="M0 0 C0.66 0 1.32 0 2 0 C2 3.63 2 7.26 2 11 C0.35 11 -1.3 11 -3 11 C-3 6.73676315 -2.00535489 3.74332913 0 0 Z " fill="#DDC484" transform="translate(52,91)"/>
<path d="M0 0 C1.32 0.33 2.64 0.66 4 1 C4 3.97 4 6.94 4 10 C2.68 10 1.36 10 0 10 C0 6.7 0 3.4 0 0 Z " fill="#FBC746" transform="translate(91,120)"/>
<path d="M0 0 C2.64 0 5.28 0 8 0 C7.01 0.495 7.01 0.495 6 1 C5.34227572 4.02934491 5.34227572 4.02934491 5 7 C3.68 7 2.36 7 1 7 C0.67 4.69 0.34 2.38 0 0 Z " fill="#FBD982" transform="translate(107,120)"/>
<path d="M0 0 C2.64 0 5.28 0 8 0 C8 1.32 8 2.64 8 4 C5.36 4 2.72 4 0 4 C0 2.68 0 1.36 0 0 Z " fill="#BDB391" transform="translate(63,94)"/>
<path d="M0 0 C0 0.99 0 1.98 0 3 C-1.32 3.33 -2.64 3.66 -4 4 C-4.33 5.65 -4.66 7.3 -5 9 C-5.66 9 -6.32 9 -7 9 C-7 6.36 -7 3.72 -7 1 C-4.50935112 0.31292445 -2.62113708 0 0 0 Z " fill="#FCB50F" transform="translate(90,120)"/>
<path d="M0 0 C1.32 1.65 2.64 3.3 4 5 C3.01 6.485 3.01 6.485 2 8 C1.60612212 10.32387947 1.26513915 12.65793749 1 15 C1.66 15.33 2.32 15.66 3 16 C2.01 16.66 1.02 17.32 0 18 C0 12.06 0 6.12 0 0 Z " fill="#E6B43C" transform="translate(48,84)"/>
<path d="M0 0 C2.94887797 0.50842724 5.37371875 1.59306362 8 3 C8 3.33 8 3.66 8 4 C4.04 4 0.08 4 -4 4 C-2.66666667 2.66666667 -1.33333333 1.33333333 0 0 Z " fill="#D1C8AF" transform="translate(47,58)"/>
<path d="M0 0 C0.33 0 0.66 0 1 0 C1.33 2.31 1.66 4.62 2 7 C1.01 7.33 0.02 7.66 -1 8 C-1.33 8.66 -1.66 9.32 -2 10 C-4 10 -6 10 -8 10 C-7.34 8.68 -6.68 7.36 -6 6 C-4.02 6 -2.04 6 0 6 C0 4.02 0 2.04 0 0 Z " fill="#664E11" transform="translate(49,51)"/>
<path d="M0 0 C0.66 0.33 1.32 0.66 2 1 C1.67 2.65 1.34 4.3 1 6 C-1.475 5.01 -1.475 5.01 -4 4 C-3.67 3.01 -3.34 2.02 -3 1 C-2.01 0.67 -1.02 0.34 0 0 Z " fill="#FCF7E4" transform="translate(103,122)"/>
<path d="M0 0 C1.32 0 2.64 0 4 0 C4 0.99 4 1.98 4 3 C3.01 3 2.02 3 1 3 C1 4.32 1 5.64 1 7 C0.34 7 -0.32 7 -1 7 C-1.04254356 5.00045254 -1.04080783 2.99958364 -1 1 C-0.67 0.67 -0.34 0.34 0 0 Z " fill="#FCB710" transform="translate(78,114)"/>
<path d="M0 0 C4.62 0 9.24 0 14 0 C14 0.33 14 0.66 14 1 C11.69 1 9.38 1 7 1 C6.67 1.99 6.34 2.98 6 4 C4.02 3.01 2.04 2.02 0 1 C0 0.67 0 0.34 0 0 Z " fill="#F1C148" transform="translate(51,57)"/>
<path d="M0 0 C0 1.65 0 3.3 0 5 C-2.31 5 -4.62 5 -7 5 C-2.16129032 0 -2.16129032 0 0 0 Z " fill="#FAF9F0" transform="translate(48,52)"/>
<path d="M0 0 C1.32 0 2.64 0 4 0 C4 1.65 4 3.3 4 5 C2.68 5 1.36 5 0 5 C0 3.35 0 1.7 0 0 Z " fill="#F7F0D3" transform="translate(66,100)"/>
<path d="M0 0 C1.32 0 2.64 0 4 0 C4 1.32 4 2.64 4 4 C1.36 4 -1.28 4 -4 4 C-2.68 3.67 -1.36 3.34 0 3 C0 2.01 0 1.02 0 0 Z " fill="#A89E7A" transform="translate(67,89)"/>
<path d="M0 0 C3.65316671 1.24976756 4.78065836 1.67098753 7 5 C1.25 5.125 1.25 5.125 -1 4 C-0.67 2.68 -0.34 1.36 0 0 Z " fill="#FBBC22" transform="translate(22,125)"/>
<path d="M0 0 C0.66 0 1.32 0 2 0 C2.33 0.66 2.66 1.32 3 2 C3.99 2.66 4.98 3.32 6 4 C2.37 4 -1.26 4 -5 4 C-3.68 3.34 -2.36 2.68 -1 2 C-0.67 1.34 -0.34 0.68 0 0 Z " fill="#F0C852" transform="translate(59,59)"/>
<path d="M0 0 C1.9375 0.8125 1.9375 0.8125 4 2 C4.33 2.99 4.66 3.98 5 5 C3.35 4.67 1.7 4.34 0 4 C0 2.68 0 1.36 0 0 Z " fill="#FABC22" transform="translate(51,125)"/>
</svg>
